<svg viewBox="0 0 65 65" fill="none" xmlns="http://www.w3.org/2000/svg"><circle cx="32.795" cy="32.696" r="32" fill="#FF0420"/><g clip-path="url(#a)"><path d="M57.972 32.353v.47c-11.101 5.53-19.414 13.841-24.943 24.943h-.47C27.03 46.67 18.718 38.352 7.616 32.823v-.47Q24.267 24.06 32.56 7.41h.47q8.293 16.651 24.943 24.943" fill="#fff"/><path fill-rule="evenodd" clip-rule="evenodd" d="M34.51 41.178v3.087h-3.58v-3.127q-1.234-.166-2.182-.562-1.643-.709-2.477-1.978-.81-1.295-.81-3.054h4.072q0 .66.367 1.173.368.513 1.104.806.76.268 1.888.268 1.472 0 2.305-.464.858-.488.858-1.392 0-.758-.71-1.221-.688-.489-2.306-.636l-1.128-.097q-2.697-.244-4.291-1.613-1.594-1.392-1.594-3.908 0-1.735.76-2.883t2.207-1.71a7.8 7.8 0 0 1 1.84-.478v-2.478h3.58v2.525a7 7 0 0 1 1.74.529q1.497.66 2.257 1.905t.76 3.03H35.1q0-.636-.32-1.1a2.1 2.1 0 0 0-.907-.757q-.564-.294-1.398-.293-.76 0-1.3.22a1.77 1.77 0 0 0-.809.586q-.27.366-.27.904 0 .66.491 1.221.515.537 1.717.66l1.128.097q3.04.244 4.855 1.613 1.84 1.343 1.84 3.884 0 1.734-.835 2.931-.834 1.173-2.452 1.784-1.023.386-2.33.528" fill="#FF0420"/><path d="M28.748 40.576q-1.643-.709-2.477-1.978-.81-1.295-.81-3.054h4.072q0 .66.367 1.173.368.513 1.104.806.76.268 1.888.268 1.472 0 2.305-.464.858-.488.858-1.392 0-.758-.71-1.221-.688-.489-2.306-.636l-1.128-.097q-2.697-.244-4.291-1.613-1.594-1.392-1.594-3.908 0-1.735.76-2.883t2.207-1.71a7.8 7.8 0 0 1 1.84-.478v-2.478h3.58v2.525a7 7 0 0 1 1.74.529q1.497.66 2.257 1.905t.76 3.03H35.1q0-.636-.32-1.1a2.1 2.1 0 0 0-.907-.757q-.564-.294-1.398-.293-.76 0-1.3.22a1.77 1.77 0 0 0-.809.586q-.27.366-.27.904 0 .66.491 1.221.515.537 1.717.66l1.128.097q3.04.244 4.855 1.613 1.84 1.343 1.84 3.884 0 1.734-.835 2.931-.834 1.173-2.452 1.784-1.023.386-2.33.528v3.087h-3.58v-3.127q-1.234-.166-2.182-.562" fill="#FF0420"/></g><defs><clipPath id="a"><path fill="#fff" d="M7.616 7.518h50.356v50.356H7.616z"/></clipPath></defs></svg>