<svg fill="none" height="48" viewBox="0 0 48 48" width="48" xmlns="http://www.w3.org/2000/svg"><path d="m29.788 21.994 3.521-5.981 9.502 14.799v2.844l-.031-19.543a1.47 1.47 0 0 0-.681-1.172L25 3.095a1.51 1.51 0 0 0-1.307.006 2 2 0 0 0-.153.09l-.06.037L6.877 12.85l-.064.03q-.13.058-.245.141a1.47 1.47 0 0 0-.612 1.107l.025 15.926 8.851-13.717c1.114-1.819 3.542-2.405 5.796-2.372l2.645.069L7.685 39.029l1.838 1.057L25.294 14.06l6.972-.026-15.733 26.682 6.554 3.772.783.45c.338.134.713.141 1.056.02l17.347-10.052-3.317 1.922zm1.345 19.37-6.624-10.391 4.042-6.86 8.696 13.707z" fill="#2d374b"/><path d="m24.511 30.97 6.621 10.392 6.117-3.545-8.698-13.703zm18.308 2.68v-2.844l-9.502-14.799-3.525 5.981 9.172 14.835 3.317-1.922a1.47 1.47 0 0 0 .543-1.066z" fill="#28a0f0"/><path d="m3.003 36.33 4.683 2.699 15.585-24.994-2.645-.07c-2.254-.032-4.682.554-5.796 2.374L5.98 30.056l-2.978 4.575v1.7zm29.264-22.296-6.972.026L9.524 40.085l5.51 3.175 1.5-2.543z" fill="#fff"/><path d="M45.756 13.998a4.44 4.44 0 0 0-2.084-3.57L26.339.462a4.51 4.51 0 0 0-3.976 0c-.145.073-16.854 9.764-16.854 9.764A4.44 4.44 0 0 0 3 13.989v20.639l2.978-4.576-.026-15.926q.005-.087.021-.172c.068-.377.28-.713.592-.935.08-.056 17.073-9.894 17.127-9.92A1.51 1.51 0 0 1 25 3.092l17.108 9.847a1.47 1.47 0 0 1 .68 1.172v19.724a1.44 1.44 0 0 1-.51 1.067l-3.317 1.922-1.711.992-6.117 3.545-6.202 3.597a1.5 1.5 0 0 1-1.056-.02l-7.339-4.222-1.5 2.543 6.596 3.797.572.323c.247.14.415.232.474.26a4.3 4.3 0 0 0 1.751.36c.553 0 1.101-.102 1.616-.304L44.06 37.263a4.4 4.4 0 0 0 1.696-3.318z" fill="#96bedc"/></svg>