<svg width="100" height="100" viewBox="0 0 100 100" fill="none" xmlns="http://www.w3.org/2000/svg"><path d="M50 0c27.614 0 50 22.386 50 50s-22.386 50-50 50S0 77.614 0 50 22.386 0 50 0" fill="#7132F5"/><path d="M50.4 93.65c3.952-.08 6.736-2.837 6.736-6.23 0-3.441-2.712-5.991-6.184-5.991-1.747 0-2.54 0-3.33-.033-.782-.033-1.561-.097-3.256-.226-3.412-.258-6.295-2.778-6.295-6.23 0-3.441 2.813-6.23 6.295-6.23h6.486c3.472 0 6.284-2.788 6.284-6.23 0-3.452-2.812-6.24-6.284-6.24H29.538c-3.482 0-6.294-2.788-6.294-6.23 0-3.452 2.812-6.25 6.294-6.25h42.273c3.472 0 6.284-2.788 6.284-6.23s-2.812-6.23-6.284-6.23H44.366c-3.482 0-6.295-2.788-6.295-6.25 0-3.442 3.2-5.983 6.295-6.23s3.253-.248 6.486-.248 6.284-2.54 6.284-5.993c0-3.392-2.287-6.149-6.746-6.228L50 6.349C25.892 6.35 6.35 25.892 6.35 50c0 24.084 19.503 43.612 43.578 43.65h.473" fill="#F0EFFF"/></svg>