<svg fill="none" height="48" viewBox="0 0 48 48" width="48" xmlns="http://www.w3.org/2000/svg"><path d="M24 48c13.255 0 24-10.745 24-24S37.255 0 24 0 0 10.745 0 24s10.745 24 24 24" fill="#ff0420"/><path d="M13.486 29.356a5.77 5.77 0 0 0 3.511 1.009q2.593 0 4.14-1.207 1.55-1.224 2.179-3.69a41 41 0 0 0 .648-3.115q.081-.475.09-.954a3.67 3.67 0 0 0-.63-2.161 3.8 3.8 0 0 0-1.728-1.369 6.3 6.3 0 0 0-2.485-.468q-5.094 0-6.32 4.952a59 59 0 0 0-.665 3.115 6.5 6.5 0 0 0-.09.972 3.45 3.45 0 0 0 1.35 2.916m5.474-2.178c-.479.4-1.087.611-1.71.594q-1.73 0-1.73-1.656 0-.382.073-.757a39 39 0 0 1 .648-2.953 3.37 3.37 0 0 1 1.008-1.818c.486-.398 1.1-.61 1.728-.594q1.71 0 1.71 1.638.001.392-.071.774-.216 1.261-.63 2.953a3.3 3.3 0 0 1-1.026 1.819m5.756 2.979a.4.4 0 0 0 .167.028h2.45a.55.55 0 0 0 .342-.126.52.52 0 0 0 .197-.324l.828-3.943h2.43q2.359 0 3.709-.99a4.88 4.88 0 0 0 1.819-3.061q.105-.462.108-.937a2.72 2.72 0 0 0-1.225-2.394 5.57 5.57 0 0 0-3.205-.829h-4.79a.55.55 0 0 0-.341.126.52.52 0 0 0-.197.324l-2.485 11.704a.43.43 0 0 0 .054.324.4.4 0 0 0 .139.098m7.856-7.264a2.15 2.15 0 0 1-1.315.414h-2.07l.684-3.223h2.16c.372-.036.744.066 1.045.288a1 1 0 0 1 .306.793 3 3 0 0 1-.054.54 1.95 1.95 0 0 1-.756 1.188" clip-rule="evenodd" fill="#fff" fill-rule="evenodd"/></svg>